<svg width="35" height="41" viewBox="0 0 35 41" fill="none" xmlns="http://www.w3.org/2000/svg">
<path d="M17.5 37.1651C19.1042 37.1651 20.4167 35.6535 20.4167 33.8061H14.5834C14.5834 35.6535 15.8959 37.1651 17.5 37.1651ZM26.25 27.0883V18.691C26.25 13.535 23.873 9.21879 19.6875 8.07676V6.93472C19.6875 5.54077 18.7105 4.41553 17.5 4.41553C16.2896 4.41553 15.3125 5.54077 15.3125 6.93472V8.07676C11.1417 9.21879 8.75004 13.5182 8.75004 18.691V27.0883L5.83337 30.4472V32.1267H29.1667V30.4472L26.25 27.0883ZM23.3334 28.7677H11.6667V18.691C11.6667 14.5259 13.8688 11.1334 17.5 11.1334C21.1313 11.1334 23.3334 14.5259 23.3334 18.691V28.7677Z" fill="#434343"/>
</svg>
